<?xml version="1.0" standalone="no"?>
<!DOCTYPE svg PUBLIC "-//W3C//DTD SVG 20010904//EN"
 "http://www.w3.org/TR/2001/REC-SVG-20010904/DTD/svg10.dtd">
<svg version="1.0" xmlns="http://www.w3.org/2000/svg"
 width="592.000000pt" height="592.000000pt" viewBox="0 0 592.000000 592.000000"
 preserveAspectRatio="xMidYMid meet">
<metadata>
Created by potrace 1.15, written by Peter Selinger 2001-2017
</metadata>
<g transform="translate(0.000000,592.000000) scale(0.100000,-0.100000)"
fill="#000000" stroke="none">
<path d="M2685 4428 c-147 -29 -135 -23 -124 -63 31 -112 -92 -234 -206 -204
-48 13 -101 51 -110 79 -3 11 -11 20 -18 20 -6 0 -53 -28 -104 -61 l-93 -61
21 -29 c52 -73 44 -156 -20 -220 -64 -64 -147 -72 -220 -20 l-29 21 -61 -93
c-33 -51 -61 -98 -61 -104 0 -7 9 -15 20 -18 28 -9 66 -62 79 -110 30 -114
-92 -237 -204 -206 -40 11 -34 24 -64 -127 l-18 -92 26 -6 c87 -17 142 -77
149 -159 4 -45 0 -62 -21 -97 -27 -47 -88 -88 -131 -88 -22 0 -26 -4 -21 -22
3 -13 13 -63 23 -113 l18 -90 52 3 c94 6 166 -46 192 -140 15 -50 -5 -106 -56
-157 -24 -24 -44 -45 -44 -48 0 -5 120 -183 123 -183 1 0 24 11 51 25 60 30
96 31 153 4 98 -47 128 -170 62 -253 -12 -15 -20 -28 -18 -30 2 -2 46 -31 98
-66 l94 -62 36 41 c62 70 132 87 208 50 71 -34 112 -124 91 -200 l-8 -26 108
-22 c59 -11 110 -21 114 -21 4 0 12 19 19 42 14 55 72 113 127 127 50 14 105
2 146 -30 30 -24 66 -88 66 -119 0 -25 5 -25 125 0 53 11 99 20 101 20 2 0 2
24 -2 53 -13 122 102 222 216 188 39 -11 88 -51 107 -85 10 -19 17 -16 107 43
53 35 96 64 96 65 0 0 -11 23 -25 50 -30 58 -31 97 -6 151 22 48 44 69 94 90
51 21 86 19 143 -10 27 -14 50 -25 50 -25 1 0 30 43 65 96 59 90 62 97 43 107
-37 21 -72 64 -84 104 -35 117 63 232 188 219 28 -4 52 -4 52 -2 0 2 9 48 20
101 25 120 25 125 0 125 -36 0 -98 39 -125 77 -34 51 -35 135 -2 184 27 41 82
79 113 79 13 0 26 4 29 10 3 5 -4 59 -16 120 l-22 110 -26 -8 c-98 -27 -201
40 -218 142 -8 53 20 119 69 159 l41 34 -63 94 c-35 52 -64 96 -66 98 -2 2
-15 -6 -30 -18 -84 -66 -205 -37 -253 62 -27 57 -26 93 4 153 14 27 25 50 25
51 0 3 -178 123 -183 123 -3 0 -24 -20 -48 -44 -53 -53 -106 -71 -163 -55 -88
24 -140 99 -134 191 l3 52 -90 18 c-49 10 -100 20 -112 23 -19 5 -23 1 -23
-21 0 -42 -41 -104 -86 -130 -49 -29 -110 -31 -161 -7 -40 19 -93 85 -93 117
0 41 -10 43 -105 24z m23 -618 c56 -24 99 -66 134 -133 21 -39 23 -57 26 -235
l4 -193 -119 3 -118 3 -5 157 c-5 169 -9 180 -61 193 -20 5 -34 0 -55 -18
l-29 -25 -2 -594 c-2 -464 0 -598 10 -618 16 -32 79 -40 108 -14 17 16 19 33
19 191 l0 173 -25 0 -25 0 0 110 0 110 146 0 145 0 -3 -322 -3 -323 -30 -53
c-59 -108 -190 -158 -345 -133 -137 22 -208 90 -230 218 -8 49 -11 245 -8 688
l3 620 23 50 c25 55 81 118 124 141 77 40 228 42 316 4z m850 -832 c62 -469
112 -861 112 -870 0 -16 -13 -18 -125 -18 -97 0 -125 3 -125 13 0 8 -11 100
-25 205 -14 105 -25 194 -25 197 0 3 -31 5 -70 5 -38 0 -70 -3 -70 -7 0 -5
-11 -96 -25 -203 -14 -107 -25 -199 -25 -203 0 -4 -57 -6 -127 -5 -121 3 -128
4 -126 23 2 11 52 397 113 857 60 460 110 841 110 847 0 7 49 11 148 11 l147
0 113 -852z"/>
<path d="M3239 2955 c-38 -21 -62 -63 -63 -111 -1 -52 25 -91 78 -118 32 -16
44 -17 76 -7 77 23 117 107 84 176 -31 66 -112 94 -175 60z"/>
</g>
</svg>
